<svg class="canvas" version="1.1" xmlns="http://www.w3.org/2000/svg" xmlns:xlink="http://www.w3.org/1999/xlink" viewBox="0 0 60 60">
  <g class="logo-entity" id="symbol">
    <g class="logo-entity-inner">
      <g stroke="none" stroke-width="1" fill="none" fill-rule="evenodd">
        <g fill="#ffffff">
          <path d="M3,7 C3.552,7 4,6.552 4,6 C4,5.448 3.552,5 3,5 C2.448,5 2,5.448 2,6 C2,6.552 2.448,7 3,7" fill="#ffffff"></path>
          <path d="M59,2 C59.552,2 60,1.552 60,1 C60,0.448 59.552,0 59,0 C58.448,0 58,0.448 58,1 C58,1.552 58.448,2 59,2" fill="#ffffff"></path>
          <path d="M4,49 C3.448,49 3,49.448 3,50 C3,50.552 3.448,51 4,51 C4.552,51 5,50.552 5,50 C5,49.448 4.552,49 4,49" fill="#ffffff"></path>
          <path d="M3,56 C2.448,56 2,56.448 2,57 C2,57.552 2.448,58 3,58 C3.552,58 4,57.552 4,57 C4,56.448 3.552,56 3,56" fill="#ffffff"></path>
          <path d="M57,9 C57.552,9 58,8.552 58,8 C58,7.448 57.552,7 57,7 C56.448,7 56,7.448 56,8 C56,8.552 56.448,9 57,9" fill="#ffffff"></path>
          <path d="M48,4 C48.552,4 49,3.552 49,3 C49,2.448 48.552,2 48,2 C47.448,2 47,2.448 47,3 C47,3.552 47.448,4 48,4" fill="#ffffff"></path>
          <path d="M42,52 C41.448,52 41,52.448 41,53 C41,53.552 41.448,54 42,54 C42.552,54 43,53.552 43,53 C43,52.448 42.552,52 42,52" fill="#ffffff"></path>
          <path d="M54,42 C53.448,42 53,42.448 53,43 C53,43.552 53.448,44 54,44 C54.552,44 55,43.552 55,43 C55,42.448 54.552,42 54,42" fill="#ffffff"></path>
          <path d="M58.965,22.199 L58.966,22.192 L58.905,21.972 C58.893,21.927 58.876,21.885 58.863,21.841 C58.649,21.085 58.413,20.339 58.142,19.608 C58.134,19.587 58.125,19.567 58.118,19.546 C57.863,18.864 57.58,18.196 57.278,17.538 C57.226,17.424 57.177,17.308 57.123,17.195 C56.827,16.57 56.507,15.958 56.17,15.358 C56.084,15.205 55.996,15.053 55.907,14.902 C55.562,14.312 55.203,13.732 54.82,13.169 C54.751,13.068 54.678,12.971 54.608,12.871 C54.242,12.347 53.86,11.836 53.462,11.337 C53.39,11.246 53.32,11.152 53.246,11.062 C52.796,10.51 52.323,9.978 51.835,9.46 C51.76,9.379 51.684,9.3 51.607,9.22 C47.249,4.691 41.489,1.526 35.03,0.43 C34.988,0.423 34.947,0.415 34.905,0.408 C34.162,0.285 33.41,0.191 32.65,0.124 C32.527,0.113 32.404,0.105 32.28,0.096 C31.527,0.039 30.768,0 30,0 C29.484,0 28.971,0.013 28.459,0.039 C28.452,0.04 28.444,0.04 28.437,0.041 C24.916,0.221 21.497,1.007 18.254,2.389 L17.751,2.604 L17.747,2.627 C7.298,7.323 0,17.822 0,30 C0,36.82 2.292,43.112 6.139,48.156 L6.146,48.184 L6.282,48.359 C6.424,48.543 6.576,48.718 6.723,48.898 C6.801,48.995 6.879,49.092 6.959,49.187 C7.062,49.311 7.16,49.439 7.265,49.561 L7.404,49.723 L7.436,49.737 C10.522,53.261 14.415,56.056 18.828,57.834 L18.83,57.851 L19.38,58.06 C19.439,58.082 19.499,58.101 19.558,58.122 C19.74,58.19 19.924,58.252 20.107,58.316 C20.364,58.406 20.621,58.495 20.88,58.578 C21.085,58.644 21.292,58.705 21.5,58.766 C21.745,58.839 21.992,58.91 22.239,58.976 C22.45,59.033 22.663,59.086 22.876,59.138 C23.128,59.2 23.381,59.259 23.634,59.314 C23.843,59.359 24.052,59.402 24.262,59.443 C24.528,59.495 24.795,59.542 25.063,59.587 C25.264,59.62 25.466,59.654 25.669,59.683 C25.953,59.725 26.239,59.759 26.526,59.792 C26.716,59.814 26.905,59.839 27.096,59.857 C27.417,59.888 27.739,59.91 28.062,59.931 C28.221,59.941 28.38,59.955 28.54,59.963 C29.026,59.986 29.512,60 30,60 C30.567,60 31.132,59.979 31.695,59.947 C31.843,59.939 31.99,59.928 32.138,59.918 C32.612,59.885 33.085,59.841 33.557,59.785 C33.654,59.773 33.752,59.765 33.849,59.752 C34.403,59.681 34.954,59.594 35.502,59.492 C35.638,59.467 35.774,59.437 35.911,59.41 C36.332,59.325 36.752,59.232 37.169,59.129 C37.27,59.104 37.372,59.087 37.472,59.062 L38.103,58.9 L38.106,58.886 C38.728,58.711 39.344,58.514 39.956,58.299 C41.896,59.379 44.126,60 46.5,60 C53.944,60 60,53.944 60,46.5 C60,44.126 59.379,41.896 58.299,39.956 C59.424,36.76 60,33.415 60,30 C60,27.302 59.636,24.688 58.965,22.199 L58.965,22.199 Z M16.979,5.223 C16.8,5.744 16.705,6.113 16.72,6.442 L16.766,7.396 L17.719,7.396 C18.129,7.396 18.285,7.252 18.864,6.718 C21.533,4.256 22.737,3.53 23.267,3.334 C23.262,3.453 23.246,3.614 23.208,3.827 C23.014,4.9 21.769,5.556 20.45,6.249 C18.801,7.117 16.749,8.196 16.933,10.536 L16.982,11.16 L17.565,11.389 C18.55,11.775 19.518,11.971 20.441,11.971 C22.981,11.971 24.812,10.571 26.582,9.218 C28.178,7.997 29.686,6.845 31.646,6.845 C32.692,6.845 34.166,6.212 35.726,5.542 C36.635,5.151 37.859,4.625 38.374,4.561 C39.498,5.457 39.039,7.362 38.866,7.941 C38.354,9.65 37.2,10.927 36.511,10.927 C36.41,10.927 36.251,10.901 36.026,10.673 C34.38,9.027 31.936,9.18 30.197,10.992 C28.892,12.353 28.161,14.35 28.242,16.332 L28.276,16.8 C28.153,16.744 28.032,16.689 27.913,16.635 C26.499,15.99 25.276,15.435 24.373,15.435 C23.59,15.435 23.202,15.844 23.04,16.089 C22.565,16.805 22.847,17.707 23.144,18.409 C23.839,20.071 22.934,21.591 22.206,22.813 C21.682,23.691 21.229,24.451 21.662,25.213 C21.93,25.686 22.437,25.925 23.167,25.925 C23.799,25.925 24.773,25.76 26.327,25.389 C26.723,25.294 27.058,25.246 27.325,25.246 C27.872,25.246 27.953,25.331 28.289,26.26 C28.542,26.961 28.858,27.832 29.719,28.495 C30.255,28.906 30.719,29.099 31.18,29.099 C32.369,29.099 32.719,27.959 32.906,27.347 C32.922,27.295 32.941,27.233 32.96,27.173 C33.044,27.262 33.053,27.382 33.073,27.614 C33.18,28.906 33.984,29.1 34.455,29.1 C34.913,29.1 35.493,28.914 36.517,28.441 C37.418,28.03 37.862,27.945 38.119,27.94 C38.185,28.103 38.247,28.467 38.289,28.72 C38.403,29.397 38.544,30.238 39.054,31.013 C39.752,32.067 40.695,33.064 41.746,33.881 C38.11,35.255 35.226,38.15 33.864,41.791 L28.886,38.062 L25.12,38.209 L21.71,37.136 L19.893,35.883 L20.406,35.712 L19.464,35.587 L18.56,34.964 L17.178,35.283 L14.812,34.969 L11.527,36.561 L11.21,36.666 L11.228,36.73 L8.373,38.089 L5.014,42.613 C3.832,40.281 2.968,37.764 2.477,35.115 C2.794,34.824 3.104,34.576 3.426,34.333 C4.233,33.724 5.067,33.094 5.875,31.639 C6.61,30.318 6.497,29.575 6.242,28.594 C6.087,28.001 5.913,27.33 5.999,26.033 C6.112,24.337 6.053,23.836 5.996,23.352 C5.947,22.933 5.896,22.5 6,20.843 C6.118,18.942 5.797,18.021 5.069,17.28 C7.702,12.14 11.874,7.917 16.979,5.223 L16.979,5.223 Z M32.031,16.478 C31.957,16.783 31.71,17.523 30.999,17.762 C30.65,17.762 30.051,17.558 29.396,17.287 C30.494,17.213 31.103,16.145 31.597,15.28 C31.675,15.142 31.773,14.971 31.868,14.817 C32.108,15.276 32.174,15.887 32.031,16.478 L32.031,16.478 Z M17.857,55.227 C16.236,54.444 14.702,53.509 13.274,52.442 L16.75,52.956 L17.857,55.227 L17.857,55.227 Z M3.203,21.887 L2.009,30.356 C2.008,30.237 2,30.119 2,30 C2,27.179 2.423,24.456 3.203,21.887 L3.203,21.887 Z M57.564,49.599 C56.845,48.069 55.3,47 53.5,47 C51.019,47 49,49.019 49,51.5 C49,53.822 50.773,55.715 53.033,55.953 C51.176,57.24 48.926,58 46.5,58 C44.312,58 42.272,57.375 40.528,56.309 C40.128,56.065 39.746,55.8 39.384,55.516 C39.364,55.501 39.343,55.487 39.323,55.471 C38.96,55.182 38.621,54.873 38.299,54.548 C38.211,54.458 38.13,54.36 38.044,54.267 C37.843,54.05 37.65,53.826 37.468,53.595 C37.345,53.439 37.226,53.281 37.112,53.119 C36.979,52.932 36.856,52.739 36.735,52.544 C36.625,52.366 36.509,52.191 36.408,52.007 C36.222,51.667 36.051,51.318 35.901,50.96 C35.828,50.786 35.77,50.605 35.706,50.428 C35.618,50.187 35.533,49.944 35.461,49.696 C35.41,49.519 35.366,49.339 35.323,49.158 C35.257,48.88 35.202,48.598 35.157,48.313 C35.133,48.16 35.105,48.008 35.087,47.853 C35.035,47.407 35,46.957 35,46.5 C35,45.686 35.095,44.848 35.279,44.01 C35.466,43.168 35.75,42.364 36.111,41.601 C36.623,44.108 38.844,46 41.5,46 C44.533,46 47,43.532 47,40.5 C47,38.191 45.568,36.213 43.546,35.399 C43.732,35.349 43.916,35.295 44.106,35.255 L44.33,35.212 C44.342,35.21 44.354,35.209 44.366,35.206 C44.741,35.136 45.112,35.086 45.479,35.052 C45.612,35.04 45.746,35.039 45.88,35.031 C46.125,35.018 46.372,35.005 46.617,35.008 C46.991,35.011 47.361,35.04 47.728,35.079 C47.777,35.084 47.824,35.084 47.873,35.09 C47.937,35.097 48,35.11 48.063,35.119 C48.335,35.158 48.608,35.21 48.882,35.269 C48.975,35.288 49.068,35.301 49.16,35.323 C49.339,35.366 49.519,35.41 49.695,35.461 C49.944,35.533 50.187,35.618 50.43,35.706 C50.607,35.771 50.787,35.828 50.959,35.9 C51.318,36.051 51.667,36.222 52.008,36.409 C52.191,36.509 52.365,36.624 52.542,36.734 C52.737,36.855 52.932,36.979 53.12,37.112 C53.281,37.226 53.439,37.345 53.594,37.467 C53.825,37.65 54.05,37.843 54.268,38.045 C54.361,38.13 54.458,38.211 54.548,38.299 C54.872,38.62 55.182,38.96 55.471,39.323 C55.486,39.342 55.5,39.363 55.516,39.383 C55.8,39.746 56.065,40.129 56.31,40.53 C57.375,42.273 58,44.312 58,46.5 C58,47.575 57.841,48.612 57.564,49.599 L57.564,49.599 Z M55.961,36.886 C55.789,36.715 55.605,36.559 55.425,36.398 C55.276,36.266 55.13,36.131 54.975,36.006 C54.743,35.817 54.503,35.643 54.26,35.471 C54.141,35.388 54.024,35.304 53.903,35.224 C53.639,35.05 53.37,34.887 53.095,34.732 C52.978,34.667 52.861,34.604 52.742,34.541 C52.463,34.395 52.18,34.257 51.891,34.131 C51.755,34.071 51.616,34.018 51.477,33.963 C51.43,33.944 51.383,33.923 51.336,33.905 C51.505,33.701 51.666,33.487 51.815,33.257 C52.093,32.825 52.194,32.192 52.364,31.019 C52.482,30.199 52.795,28.023 53.191,27.749 C53.196,27.749 53.705,27.793 54.9,29.356 C55.381,29.985 56.044,30.708 56.897,30.708 C57.369,30.708 57.724,30.539 57.992,30.236 C57.97,32.84 57.6,35.402 56.875,37.876 C56.588,37.53 56.282,37.201 55.961,36.886 L55.961,36.886 Z" fill="#ffffff"></path>
        </g>
      </g>
    </g>
  </g>
</svg>