<svg class="canvas" version="1.1" xmlns="http://www.w3.org/2000/svg" xmlns:xlink="http://www.w3.org/1999/xlink" width="100%" height="100%" viewBox="0 0 22 22">
  <defs></defs>
  <g class="logo-entity" id="symbol" >
    <g class="logo-entity-inner">
      <g stroke="none" stroke-width="1" fill="none" fill-rule="evenodd">
        <path d="M13.7914771,16.6199042 C12.404028,17.4941831 10.7610839,18 9,18 C4.02943725,18 0,13.9705627 0,9 C0,4.02943725 4.02943725,0 9,0 C13.9705627,0 18,4.02943725 18,9 C18,10.7610839 17.4941831,12.404028 16.6199042,13.7914771 L21.9601551,19.131728 L19.131728,21.9601551 L13.7914771,16.6199042 Z M9,16 C12.8659932,16 16,12.8659932 16,9 C16,5.13400675 12.8659932,2 9,2 C5.13400675,2 2,5.13400675 2,9 C2,12.8659932 5.13400675,16 9,16 Z" fill="#ffffff" transform="translate(0,0)"></path>
      </g>
    </g>
  </g>
</svg>